<svg xmlns="http://www.w3.org/2000/svg" viewBox="0 0 64 64"><title>rocket</title><g id="Layer_2" data-name="Layer 2"><g id="rocket"><path d="M13.66,40.5H25.38L24,44.87a1,1,0,0,0,1,1.3h14.9a1,1,0,0,0,1-1.3L39.4,40.5H50.77a1,1,0,0,0,1-1c-.24-8.27-4.3-14.39-8.19-16.29A48.48,48.48,0,0,0,39.57,9a1,1,0,0,0-.11-.24C37.07,3.71,34.3.6,32.6.07l-.1,0a1,1,0,0,0-.57,0l-.1,0C30.13.6,27.37,3.7,25,8.73a1,1,0,0,0-.11.25,48.49,48.49,0,0,0-4,14.21c-3.89,1.9-8,8-8.19,16.29a1,1,0,0,0,1,1ZM43.84,25.68c2.82,2.11,5.44,6.88,5.88,12.82H43.4A56.49,56.49,0,0,0,43.84,25.68ZM26.31,44.17l1.17-3.67H37.3l1.17,3.67Zm5.92-42.1c1.09.54,3,2.7,4.81,6.19H27.42C29.24,4.8,31.11,2.64,32.23,2.07ZM22.72,24.14a1,1,0,0,0,0-.33,46.42,46.42,0,0,1,3.68-13.56l11.58,0a46.55,46.55,0,0,1,3.66,13.55,1,1,0,0,0,0,.32,54.61,54.61,0,0,1-.33,14.37H23A54.58,54.58,0,0,1,22.72,24.14Zm-2.13,1.54A56.52,56.52,0,0,0,21,38.5H14.72C15.15,32.56,17.77,27.79,20.59,25.68Z"/><path d="M32.44,29a5.43,5.43,0,1,0-5.39-5.43A5.41,5.41,0,0,0,32.44,29Zm0-8.86a3.43,3.43,0,1,1-3.39,3.43A3.41,3.41,0,0,1,32.44,20.18Z"/><path d="M53.21,50.87c-5.06-.89-11.42.82-14.44,6.44a8.91,8.91,0,0,0-2-1.78v-4.2a1,1,0,0,0-2,0v3.23a8.63,8.63,0,0,0-6,.16v-3.6a1,1,0,0,0-2,0v4.71a8.93,8.93,0,0,0-1.58,1.48c-3-5.62-9.37-7.34-14.43-6.45C5.42,51.81,0,55.93,0,63a1,1,0,0,0,1,1H63a1,1,0,0,0,1-1C64,55.93,58.58,51.81,53.21,50.87ZM12.41,62H2c.49-5.64,5.11-8.46,9.1-9.17a12,12,0,0,1,10.48,2.92,7.34,7.34,0,0,0-1.86-.24A7.45,7.45,0,0,0,12.41,62Zm10.83,0H14.42a5.44,5.44,0,0,1,5.33-4.49,5.38,5.38,0,0,1,4.15,2h0A8.9,8.9,0,0,0,23.24,62Zm2,0a6.81,6.81,0,0,1,13.5,0Zm15.51,0v0a8.9,8.9,0,0,0-.66-2.5h0a5.39,5.39,0,0,1,4.15-2A5.45,5.45,0,0,1,49.58,62Zm10.83,0a7.45,7.45,0,0,0-7.34-6.49,7.35,7.35,0,0,0-1.86.24,12,12,0,0,1,10.48-2.92c4,.7,8.6,3.52,9.09,9.17Z"/></g></g></svg>