<svg xmlns="http://www.w3.org/2000/svg" xmlns:xlink="http://www.w3.org/1999/xlink" version="1.1" x="0px" y="0px" viewBox="0 0 96 120" enable-background="new 0 0 96 96" xml:space="preserve"><path d="M67.372,91.25h22.355v-5.35H70.047V68.684c0-1.475-1.2-2.675-2.675-2.675h-2.99c-0.546-7.405-8.941-8.58-11.038-8.752  l-1.581-3.29c2.291-1.154,3.958-3.355,4.376-5.974h7.476v-1.5H56.24c-0.089-3.354-2.217-6.204-5.19-7.357h4.612v-1.5H32.385v1.5  h12.81c-3.038,1.178-5.2,4.125-5.2,7.574c0,3.172,1.831,5.919,4.488,7.257l-0.665,1.382H32.385v1.5h10.712l-0.196,0.407  c-2.097,0.172-10.492,1.347-11.038,8.752h-3.226c-1.475,0-2.675,1.2-2.675,2.675v17.217H6.273v5.35h22.364H67.372z M27.463,88.576  v-2.675V68.684c0-0.648,0.527-1.175,1.175-1.175h38.734c0.648,0,1.175,0.527,1.175,1.175v17.217v2.675  c0,0.648-0.527,1.175-1.175,1.175H28.638C27.99,89.75,27.463,89.224,27.463,88.576z"/><polygon points="44.556,83.941 39.245,78.63 44.556,73.318 43.495,72.258 37.124,78.63 43.495,85.002 "/><polygon points="52.515,85.002 58.887,78.63 52.515,72.258 51.454,73.318 56.766,78.63 51.454,83.941 "/><rect x="47.255" y="72.517" transform="matrix(0.9555 0.2949 -0.2949 0.9555 25.3194 -10.6591)" width="1.5" height="12.227"/><polygon points="7.554,31.874 21.006,18.421 7.554,4.97 6.493,6.03 18.885,18.421 6.493,30.813 "/><rect x="28.156" y="11.099" width="11.602" height="1.5"/><rect x="46.978" y="11.099" width="17.275" height="1.5"/><rect x="73.573" y="11.099" width="3.042" height="1.5"/><rect x="85.215" y="11.099" width="3.763" height="1.5"/><rect x="77.376" y="17.671" width="11.602" height="1.5"/><rect x="52.881" y="17.671" width="17.274" height="1.5"/><rect x="40.519" y="17.671" width="3.042" height="1.5"/><rect x="28.156" y="17.671" width="3.763" height="1.5"/><rect x="28.156" y="24.245" width="11.602" height="1.5"/><rect x="46.978" y="24.245" width="17.275" height="1.5"/><rect x="73.573" y="24.245" width="3.042" height="1.5"/><rect x="85.215" y="24.245" width="3.763" height="1.5"/><rect x="7.023" y="37.637" width="15.633" height="1.5"/><rect x="68.221" y="37.637" width="4.099" height="1.5"/><rect x="83.908" y="37.637" width="5.069" height="1.5"/><rect x="73.345" y="46.494" width="15.633" height="1.5"/><rect x="23.681" y="46.494" width="4.099" height="1.5"/><rect x="7.023" y="46.494" width="5.069" height="1.5"/><rect x="7.023" y="55.35" width="15.633" height="1.5"/><rect x="68.221" y="55.35" width="4.099" height="1.5"/><rect x="83.908" y="55.35" width="5.069" height="1.5"/><text x="0" y="111" fill="#000000" font-size="5px" font-weight="bold" font-family="'Helvetica Neue', Helvetica, Arial-Unicode, Arial, Sans-serif">Created by ahmad</text><text x="0" y="116" fill="#000000" font-size="5px" font-weight="bold" font-family="'Helvetica Neue', Helvetica, Arial-Unicode, Arial, Sans-serif">from the Noun Project</text></svg>