<svg xmlns="http://www.w3.org/2000/svg" xmlns:xlink="http://www.w3.org/1999/xlink" version="1.1" x="0px" y="0px" viewBox="0 0 64 80" enable-background="new 0 0 64 64" xml:space="preserve"><g><g><path d="M58.5,32.521h-5.417l-2.151-7.541c-0.1-0.352-0.325-0.654-0.632-0.852l-10.946-7.027c1.308-1.646,2.095-3.734,2.095-6.009    C41.45,5.804,37.21,1.5,32,1.5s-9.45,4.304-9.45,9.593c0,2.223,0.755,4.266,2.01,5.894l-11.125,7.143    c-0.307,0.197-0.532,0.5-0.632,0.852l-2.151,7.541H5.5c-0.425,0-0.83,0.18-1.114,0.495c-0.285,0.315-0.422,0.736-0.378,1.159    l2.79,26.979C6.876,61.919,7.521,62.5,8.29,62.5H55.71c0.769,0,1.413-0.581,1.492-1.346l2.79-26.979    c0.043-0.423-0.094-0.844-0.378-1.159C59.33,32.701,58.925,32.521,58.5,32.521z M32,4.5c3.556,0,6.45,2.957,6.45,6.593    s-2.894,6.593-6.45,6.593s-6.45-2.957-6.45-6.593S28.444,4.5,32,4.5z M15.533,26.348l11.284-7.243    c1.49,0.997,3.27,1.581,5.184,1.581c1.857,0,3.586-0.555,5.049-1.498l11.154,7.16l1.761,6.174H13.771L15.533,26.348z M54.357,59.5    H9.643L7.163,35.521h49.674L54.357,59.5z"/><path d="M28,49.011h8c0.829,0,1.5-0.672,1.5-1.5s-0.671-1.5-1.5-1.5h-8c-0.829,0-1.5,0.672-1.5,1.5S27.171,49.011,28,49.011z"/></g></g><text x="0" y="79" fill="#000000" font-size="5px" font-weight="bold" font-family="'Helvetica Neue', Helvetica, Arial-Unicode, Arial, Sans-serif">Created by Denicon</text><text x="0" y="84" fill="#000000" font-size="5px" font-weight="bold" font-family="'Helvetica Neue', Helvetica, Arial-Unicode, Arial, Sans-serif">from the Noun Project</text></svg>